<svg width="25" height="25" viewBox="0 0 25 25" fill="none" xmlns="http://www.w3.org/2000/svg">
<path d="M12.3748 22.2021C11.0083 22.2255 9.71234 21.985 8.48686 21.4806C7.26138 20.9761 6.1866 20.2778 5.26253 19.3855C4.33912 18.4931 3.60438 17.4432 3.0583 16.2357C2.51222 15.0282 2.22781 13.7412 2.20509 12.3748C2.18141 10.9916 2.42186 9.69132 2.92643 8.47384C3.431 7.25636 4.12945 6.18625 5.02179 5.26351C5.91411 4.33943 6.96368 3.60469 8.17053 3.05929C9.37737 2.51389 10.6647 2.22915 12.0325 2.20507C13.4156 2.18139 14.7159 2.42184 15.9334 2.92641C17.1509 3.43098 18.221 4.12943 19.1437 5.02177C20.0678 5.91409 20.8025 6.96 21.3477 8.15951C21.893 9.35902 22.1778 10.65 22.2022 12.0325C22.2256 13.3989 21.985 14.6949 21.4806 15.9204C20.9762 17.1459 20.2778 18.2206 19.3855 19.1447C18.4931 20.0681 17.4472 20.8028 16.2477 21.3487C15.0482 21.8947 13.7573 22.1791 12.3748 22.2021ZM12.3397 20.1524C12.7627 19.5451 13.1269 18.9138 13.4324 18.2585C13.7379 17.6031 13.9844 16.9071 14.1718 16.1705L10.3724 16.2355C10.5849 16.9653 10.855 17.6525 11.1828 18.297C11.5105 18.9415 11.8962 19.5599 12.3397 20.1524ZM9.73322 19.797C9.42386 19.2522 9.15146 18.6858 8.91602 18.0977C8.68059 17.5097 8.4828 16.9006 8.32266 16.2706L5.3731 16.3211C5.87062 17.1461 6.48727 17.8606 7.22306 18.4648C7.95884 19.0689 8.79556 19.513 9.73322 19.797ZM14.9325 19.708C15.8605 19.3921 16.6819 18.9196 17.3966 18.2906C18.1112 17.6616 18.7027 16.9264 19.1711 16.0849L16.2215 16.1354C16.0824 16.7712 15.9055 17.387 15.691 17.9828C15.4765 18.5785 15.2237 19.1536 14.9325 19.708ZM4.48899 14.336L7.88849 14.2778C7.83279 13.9453 7.7895 13.6167 7.7586 13.2918C7.7277 12.967 7.7096 12.6299 7.70428 12.2806C7.69829 11.9307 7.70518 11.5932 7.72496 11.2681C7.74473 10.9431 7.77642 10.6131 7.82003 10.2783L4.42053 10.3365C4.34291 10.6712 4.28589 11.0016 4.24947 11.3276C4.21304 11.6536 4.19815 11.9913 4.2048 12.3405C4.21079 12.6905 4.23756 13.0274 4.28511 13.3513C4.33266 13.6752 4.40062 14.0034 4.48899 14.336ZM9.8882 14.2435L14.5875 14.1631C14.6318 13.8289 14.6638 13.499 14.6836 13.1733C14.7033 12.8476 14.7099 12.5101 14.7033 12.1608C14.6973 11.8109 14.6788 11.4738 14.6479 11.1496C14.6171 10.8254 14.5741 10.4968 14.519 10.1637L9.81974 10.2441C9.77545 10.5783 9.74343 10.9082 9.72366 11.2339C9.7039 11.5596 9.69734 11.8971 9.70399 12.2464C9.70998 12.5963 9.72842 12.9334 9.75931 13.2576C9.79019 13.5818 9.83316 13.9104 9.8882 14.2435ZM16.5872 14.1289L19.9867 14.0707C20.0643 13.736 20.1214 13.4056 20.1578 13.0796C20.1942 12.7536 20.2091 12.416 20.2025 12.0667C20.1965 11.7167 20.1697 11.3798 20.1221 11.0559C20.0746 10.732 20.0066 10.4038 19.9183 10.0713L16.5188 10.1294C16.5745 10.4619 16.6178 10.7905 16.6486 11.1154C16.6795 11.4402 16.6977 11.7773 16.703 12.1266C16.709 12.4765 16.7021 12.814 16.6823 13.1391C16.6625 13.4641 16.6308 13.7941 16.5872 14.1289ZM16.0846 8.13658L19.0342 8.08609C18.5366 7.26116 17.9203 6.5466 17.1852 5.94243C16.4501 5.33825 15.613 4.89418 14.674 4.61021C14.9834 5.15499 15.2558 5.72142 15.4912 6.30947C15.7267 6.89753 15.9244 7.50657 16.0846 8.13658ZM10.2354 8.23671L14.0349 8.17167C13.8224 7.44187 13.5522 6.75472 13.2245 6.11024C12.8967 5.46575 12.5111 4.84726 12.0676 4.25477C11.6446 4.8621 11.2803 5.49342 10.9748 6.14875C10.6693 6.80407 10.4229 7.50006 10.2354 8.23671ZM5.23617 8.32228L8.18574 8.27179C8.32488 7.63599 8.50203 7.0202 8.7172 6.42443C8.93237 5.82866 9.1849 5.25358 9.47478 4.69921C8.54672 5.01514 7.72536 5.4876 7.01068 6.11659C6.29601 6.74558 5.70451 7.48081 5.23617 8.32228Z" fill="white"/>
</svg>
