<svg width="48" height="60" viewBox="0 0 48 60" fill="none" xmlns="http://www.w3.org/2000/svg">
<path d="M26.13 27.87C25.8447 27.5969 25.5083 27.3828 25.14 27.24C24.4096 26.9399 23.5904 26.9399 22.86 27.24C22.4917 27.3828 22.1553 27.5969 21.87 27.87L15.87 33.87C15.3051 34.4349 14.9877 35.2011 14.9877 36C14.9877 36.7989 15.3051 37.5651 15.87 38.13C16.4349 38.6949 17.2011 39.0123 18 39.0123C18.7989 39.0123 19.5651 38.6949 20.13 38.13L21 37.23V45C21 45.7957 21.3161 46.5587 21.8787 47.1213C22.4413 47.6839 23.2044 48 24 48C24.7956 48 25.5587 47.6839 26.1213 47.1213C26.6839 46.5587 27 45.7957 27 45V37.23L27.87 38.13C28.1489 38.4112 28.4807 38.6344 28.8463 38.7867C29.2118 38.939 29.604 39.0174 30 39.0174C30.396 39.0174 30.7882 38.939 31.1537 38.7867C31.5193 38.6344 31.8511 38.4112 32.13 38.13C32.4112 37.8511 32.6344 37.5193 32.7867 37.1537C32.939 36.7882 33.0174 36.396 33.0174 36C33.0174 35.604 32.939 35.2118 32.7867 34.8463C32.6344 34.4807 32.4112 34.1489 32.13 33.87L26.13 27.87ZM48 20.82C47.9688 20.5444 47.9084 20.2729 47.82 20.01V19.74C47.6758 19.4315 47.4834 19.148 47.25 18.9L29.25 0.9C29.002 0.666649 28.7185 0.474243 28.41 0.33H28.11C27.8183 0.174009 27.5048 0.062766 27.18 0H9C6.61305 0 4.32387 0.948212 2.63604 2.63604C0.948212 4.32387 0 6.61305 0 9V51C0 53.3869 0.948212 55.6761 2.63604 57.364C4.32387 59.0518 6.61305 60 9 60H39C41.3869 60 43.6761 59.0518 45.364 57.364C47.0518 55.6761 48 53.3869 48 51V20.82ZM30 10.23L37.77 18H33C32.2043 18 31.4413 17.6839 30.8787 17.1213C30.3161 16.5587 30 15.7956 30 15V10.23ZM42 51C42 51.7957 41.6839 52.5587 41.1213 53.1213C40.5587 53.6839 39.7957 54 39 54H9C8.20435 54 7.44129 53.6839 6.87868 53.1213C6.31607 52.5587 6 51.7957 6 51V9C6 8.20435 6.31607 7.44129 6.87868 6.87868C7.44129 6.31607 8.20435 6 9 6H24V15C24 17.3869 24.9482 19.6761 26.636 21.364C28.3239 23.0518 30.6131 24 33 24H42V51Z" fill="#F59E0B"/>
</svg>
