<svg width="44" height="64" viewBox="0 0 44 64" fill="none" xmlns="http://www.w3.org/2000/svg">
<path d="M42 17.4166V58.25C42 59.0235 41.7366 59.7654 41.2678 60.3124C40.7989 60.8594 40.163 61.1666 39.5 61.1666H4.5C3.83696 61.1666 3.20107 60.8594 2.73223 60.3124C2.26339 59.7654 2 59.0235 2 58.25V5.74998C2 4.97643 2.26339 4.23457 2.73223 3.68758C3.20107 3.1406 3.83696 2.83331 4.5 2.83331H29.5M42 17.4166H29.5V2.83331M42 17.4166L29.5 2.83331" stroke="#F59E0B" stroke-width="4" stroke-linecap="round" stroke-linejoin="round"/>
<path d="M22 49.5C27.5228 49.5 32 44.2766 32 37.8333C32 31.39 27.5228 26.1667 22 26.1667C16.4772 26.1667 12 31.39 12 37.8333C12 44.2766 16.4772 49.5 22 49.5Z" stroke="#F59E0B" stroke-width="4"/>
<path d="M20.75 33.4583V39.2916H25.75" stroke="#F59E0B" stroke-width="4" stroke-linecap="round" stroke-linejoin="round"/>
</svg>
